<?xml version="1.0" standalone="no"?>
<!DOCTYPE svg PUBLIC "-//W3C//DTD SVG 20010904//EN"
 "http://www.w3.org/TR/2001/REC-SVG-20010904/DTD/svg10.dtd">
<svg version="1.0" xmlns="http://www.w3.org/2000/svg"
 width="104.000000pt" height="104.000000pt" viewBox="0 0 104.000000 104.000000"
 preserveAspectRatio="xMidYMid meet">
<metadata>
Created by potrace 1.11, written by Peter Selinger 2001-2013
</metadata>
<g transform="translate(0.000000,104.000000) scale(0.100000,-0.100000)"
fill="#000000" stroke="none">
<path d="M20 720 l0 -120 55 0 55 0 0 66 0 67 78 -6 c109 -9 118 -14 148 -66
24 -41 27 -57 27 -141 0 -87 -2 -99 -29 -142 -16 -26 -35 -50 -44 -54 -8 -3
-77 -9 -152 -11 l-138 -6 0 -55 0 -55 168 5 c117 3 176 9 196 19 17 8 47 41
70 79 l41 65 0 155 -1 155 -36 61 c-21 33 -43 66 -50 71 -23 20 -129 33 -260
33 l-128 0 0 -120z"/>
<path d="M697 830 c-59 -10 -66 -16 -113 -93 l-38 -62 0 -155 0 -155 36 -61
c21 -33 43 -66 50 -71 23 -20 129 -33 260 -33 l128 0 0 120 0 120 -55 0 -55 0
0 -66 0 -67 -77 6 c-110 9 -119 14 -149 66 -24 41 -27 57 -27 141 0 87 2 99
29 142 16 26 35 50 44 54 8 3 77 9 153 11 l137 6 0 53 0 54 -137 -1 c-76 -1
-160 -5 -186 -9z"/>
</g>
</svg>
